<svg width="228" height="50" viewBox="0 0 228 50" fill="none" xmlns="http://www.w3.org/2000/svg">
<g clip-path="url(#clip0_2038_4317)">
<path opacity="0.3" d="M193.493 11.6272C186.824 13.2264 184.834 15.1392 183.161 21.5152C183.124 21.654 183.039 21.777 182.92 21.8647C182.801 21.9524 182.656 22 182.505 22C182.355 22 182.21 21.9524 182.091 21.8647C181.972 21.777 181.887 21.654 181.849 21.5152C180.177 15.1392 178.176 13.2264 171.507 11.6272C171.362 11.591 171.233 11.5098 171.142 11.3963C171.05 11.2828 171 11.1435 171 11C171 10.8566 171.05 10.7172 171.142 10.6037C171.233 10.4902 171.362 10.409 171.507 10.3728C178.176 8.77361 180.177 6.86081 181.849 0.484786C181.887 0.345965 181.972 0.223059 182.091 0.135329C182.21 0.0475996 182.355 0 182.505 0C182.656 0 182.801 0.0475996 182.92 0.135329C183.039 0.223059 183.124 0.345965 183.161 0.484786C184.834 6.86081 186.824 8.77361 193.493 10.3728C193.638 10.409 193.767 10.4902 193.858 10.6037C193.95 10.7172 194 10.8566 194 11C194 11.1435 193.95 11.2828 193.858 11.3963C193.767 11.5098 193.638 11.591 193.493 11.6272Z" fill="white"/>
<path opacity="0.3" d="M187.493 44.6272C180.824 46.2264 178.834 48.1392 177.161 54.5152C177.124 54.654 177.039 54.777 176.92 54.8647C176.801 54.9524 176.656 55 176.505 55C176.355 55 176.21 54.9524 176.091 54.8647C175.972 54.777 175.887 54.654 175.849 54.5152C174.177 48.1392 172.176 46.2264 165.507 44.6272C165.362 44.591 165.233 44.5098 165.142 44.3963C165.05 44.2828 165 44.1435 165 44C165 43.8566 165.05 43.7172 165.142 43.6037C165.233 43.4902 165.362 43.409 165.507 43.3728C172.176 41.7736 174.177 39.8608 175.849 33.4848C175.887 33.346 175.972 33.2231 176.091 33.1353C176.21 33.0476 176.355 33 176.505 33C176.656 33 176.801 33.0476 176.92 33.1353C177.039 33.2231 177.124 33.346 177.161 33.4848C178.834 39.8608 180.824 41.7736 187.493 43.3728C187.638 43.409 187.767 43.4902 187.858 43.6037C187.95 43.7172 188 43.8566 188 44C188 44.1435 187.95 44.2828 187.858 44.3963C187.767 44.5098 187.638 44.591 187.493 44.6272Z" fill="white"/>
<path opacity="0.2" d="M86.4929 39.6272C79.8239 41.2264 77.8342 43.1392 76.1614 49.5152C76.1236 49.654 76.0387 49.777 75.92 49.8647C75.8013 49.9524 75.6555 50 75.5055 50C75.3554 50 75.2096 49.9524 75.0909 49.8647C74.9722 49.777 74.8873 49.654 74.8495 49.5152C73.1768 43.1392 71.1761 41.2264 64.5071 39.6272C64.3619 39.591 64.2333 39.5098 64.1415 39.3963C64.0498 39.2828 64 39.1435 64 39C64 38.8566 64.0498 38.7172 64.1415 38.6037C64.2333 38.4902 64.3619 38.409 64.5071 38.3728C71.1761 36.7736 73.1768 34.8608 74.8495 28.4848C74.8873 28.346 74.9722 28.2231 75.0909 28.1353C75.2096 28.0476 75.3554 28 75.5055 28C75.6555 28 75.8013 28.0476 75.92 28.1353C76.0387 28.2231 76.1236 28.346 76.1614 28.4848C77.8342 34.8608 79.8239 36.7736 86.4929 38.3728C86.6381 38.409 86.7667 38.4902 86.8585 38.6037C86.9502 38.7172 87 38.8566 87 39C87 39.1435 86.9502 39.2828 86.8585 39.3963C86.7667 39.5098 86.6381 39.591 86.4929 39.6272Z" fill="white"/>
<path opacity="0.3" d="M75.5811 5.04164C70.0719 6.42279 68.4282 8.07476 67.0464 13.5813C67.0152 13.7012 66.945 13.8074 66.847 13.8831C66.7489 13.9589 66.6285 14 66.5045 14C66.3806 14 66.2601 13.9589 66.1621 13.8831C66.064 13.8074 65.9938 13.7012 65.9626 13.5813C64.5808 8.07476 62.9281 6.42279 57.4189 5.04164C57.2989 5.01043 57.1927 4.94031 57.1169 4.8423C57.0411 4.74428 57 4.62389 57 4.5C57 4.37612 57.0411 4.25573 57.1169 4.15771C57.1927 4.05969 57.2989 3.98958 57.4189 3.95837C62.9281 2.57721 64.5808 0.925248 65.9626 -4.58132C65.9938 -4.70121 66.064 -4.80736 66.1621 -4.88312C66.2601 -4.95889 66.3806 -5 66.5045 -5C66.6285 -5 66.7489 -4.95889 66.847 -4.88312C66.945 -4.80736 67.0152 -4.70121 67.0464 -4.58132C68.4282 0.925248 70.0719 2.57721 75.5811 3.95837C75.7011 3.98958 75.8073 4.05969 75.8831 4.15771C75.9589 4.25573 76 4.37612 76 4.5C76 4.62389 75.9589 4.74428 75.8831 4.8423C75.8073 4.94031 75.7011 5.01043 75.5811 5.04164Z" fill="white"/>
<path opacity="0.3" d="M0.360651 9.32671C-8.04811 11.4348 -10.5569 13.9562 -12.666 22.361C-12.7137 22.544 -12.8207 22.706 -12.9704 22.8216C-13.1201 22.9373 -13.3039 23 -13.4931 23C-13.6823 23 -13.8661 22.9373 -14.0158 22.8216C-14.1655 22.706 -14.2725 22.544 -14.3202 22.361C-16.4293 13.9562 -18.9519 11.4348 -27.3607 9.32671C-27.5437 9.27907 -27.7058 9.17206 -27.8215 9.02245C-27.9372 8.87285 -28 8.6891 -28 8.5C-28 8.31091 -27.9372 8.12716 -27.8215 7.97756C-27.7058 7.82795 -27.5437 7.72094 -27.3607 7.6733C-18.9519 5.56522 -16.4293 3.0438 -14.3202 -5.36096C-14.2725 -5.54396 -14.1655 -5.70597 -14.0158 -5.82161C-13.8661 -5.93726 -13.6823 -6 -13.4931 -6C-13.3039 -6 -13.1201 -5.93726 -12.9704 -5.82161C-12.8207 -5.70597 -12.7137 -5.54396 -12.666 -5.36096C-10.5569 3.0438 -8.04811 5.56522 0.360651 7.6733C0.543729 7.72094 0.705849 7.82795 0.821548 7.97756C0.937247 8.12716 1 8.31091 1 8.5C1 8.6891 0.937247 8.87285 0.821548 9.02245C0.705849 9.17206 0.543729 9.27907 0.360651 9.32671Z" fill="white"/>
<path opacity="0.2" d="M57.6693 13.9276C53.3199 15.018 52.0223 16.3222 50.9314 20.6695C50.9067 20.7641 50.8513 20.8479 50.7739 20.9077C50.6965 20.9676 50.6014 21 50.5036 21C50.4057 21 50.3106 20.9676 50.2332 20.9077C50.1558 20.8479 50.1004 20.7641 50.0758 20.6695C48.9848 16.3222 47.68 15.018 43.3307 13.9276C43.236 13.903 43.1521 13.8476 43.0923 13.7702C43.0325 13.6929 43 13.5978 43 13.5C43 13.4022 43.0325 13.3072 43.0923 13.2298C43.1521 13.1524 43.236 13.097 43.3307 13.0724C47.68 11.982 48.9848 10.6778 50.0758 6.33054C50.1004 6.23589 50.1558 6.15209 50.2332 6.09227C50.3106 6.03245 50.4057 6 50.5036 6C50.6014 6 50.6965 6.03245 50.7739 6.09227C50.8513 6.15209 50.9067 6.23589 50.9314 6.33054C52.0223 10.6778 53.3199 11.982 57.6693 13.0724C57.764 13.097 57.8479 13.1524 57.9077 13.2298C57.9675 13.3072 58 13.4022 58 13.5C58 13.5978 57.9675 13.6929 57.9077 13.7702C57.8479 13.8476 57.764 13.903 57.6693 13.9276Z" fill="white"/>
<path opacity="0.2" d="M208.735 25.3421C205.256 26.2144 204.218 27.2577 203.345 30.7356C203.325 30.8113 203.281 30.8783 203.219 30.9262C203.157 30.974 203.081 31 203.003 31C202.925 31 202.848 30.974 202.787 30.9262C202.725 30.8783 202.68 30.8113 202.661 30.7356C201.788 27.2577 200.744 26.2144 197.265 25.3421C197.189 25.3224 197.122 25.2781 197.074 25.2162C197.026 25.1543 197 25.0782 197 25C197 24.9218 197.026 24.8457 197.074 24.7838C197.122 24.7219 197.189 24.6776 197.265 24.6579C200.744 23.7856 201.788 22.7423 202.661 19.2644C202.68 19.1887 202.725 19.1217 202.787 19.0738C202.848 19.026 202.925 19 203.003 19C203.081 19 203.157 19.026 203.219 19.0738C203.281 19.1217 203.325 19.1887 203.345 19.2644C204.218 22.7423 205.256 23.7856 208.735 24.6579C208.811 24.6776 208.878 24.7219 208.926 24.7838C208.974 24.8457 209 24.9218 209 25C209 25.0782 208.974 25.1543 208.926 25.2162C208.878 25.2781 208.811 25.3224 208.735 25.3421Z" fill="white"/>
<path opacity="0.2" d="M139.735 11.3421C136.256 12.2144 135.218 13.2577 134.345 16.7356C134.325 16.8113 134.281 16.8783 134.219 16.9262C134.157 16.974 134.081 17 134.003 17C133.925 17 133.848 16.974 133.787 16.9262C133.725 16.8783 133.68 16.8113 133.661 16.7356C132.788 13.2577 131.744 12.2144 128.265 11.3421C128.189 11.3224 128.122 11.2781 128.074 11.2162C128.026 11.1543 128 11.0782 128 11C128 10.9218 128.026 10.8457 128.074 10.7838C128.122 10.7219 128.189 10.6776 128.265 10.6579C131.744 9.78561 132.788 8.74226 133.661 5.26443C133.68 5.18871 133.725 5.12167 133.787 5.07382C133.848 5.02596 133.925 5 134.003 5C134.081 5 134.157 5.02596 134.219 5.07382C134.281 5.12167 134.325 5.18871 134.345 5.26443C135.218 8.74226 136.256 9.78561 139.735 10.6579C139.811 10.6776 139.878 10.7219 139.926 10.7838C139.974 10.8457 140 10.9218 140 11C140 11.0782 139.974 11.1543 139.926 11.2162C139.878 11.2781 139.811 11.3224 139.735 11.3421Z" fill="white"/>
<path opacity="0.1" d="M137.493 35.1557C130.824 36.8276 128.834 38.8273 127.161 45.4932C127.124 45.6383 127.039 45.7668 126.92 45.8585C126.801 45.9503 126.656 46 126.505 46C126.355 46 126.21 45.9503 126.091 45.8585C125.972 45.7668 125.887 45.6383 125.849 45.4932C124.177 38.8273 122.176 36.8276 115.507 35.1557C115.362 35.1179 115.233 35.033 115.142 34.9144C115.05 34.7957 115 34.65 115 34.5C115 34.35 115.05 34.2043 115.142 34.0856C115.233 33.967 115.362 33.8821 115.507 33.8443C122.176 32.1724 124.177 30.1727 125.849 23.5068C125.887 23.3617 125.972 23.2332 126.091 23.1415C126.21 23.0498 126.355 23 126.505 23C126.656 23 126.801 23.0498 126.92 23.1415C127.039 23.2332 127.124 23.3617 127.161 23.5068C128.834 30.1727 130.824 32.1724 137.493 33.8443C137.638 33.8821 137.767 33.967 137.858 34.0856C137.95 34.2043 138 34.35 138 34.5C138 34.65 137.95 34.7957 137.858 34.9144C137.767 35.033 137.638 35.1179 137.493 35.1557Z" fill="white"/>
<path opacity="0.1" d="M41.4929 41.1557C34.8239 42.8276 32.8342 44.8273 31.1614 51.4932C31.1236 51.6383 31.0387 51.7668 30.92 51.8585C30.8013 51.9503 30.6555 52 30.5055 52C30.3554 52 30.2096 51.9503 30.0909 51.8585C29.9722 51.7668 29.8873 51.6383 29.8495 51.4932C28.1768 44.8273 26.1761 42.8276 19.5071 41.1557C19.3619 41.1179 19.2333 41.033 19.1415 40.9144C19.0498 40.7957 19 40.65 19 40.5C19 40.35 19.0498 40.2043 19.1415 40.0856C19.2333 39.967 19.3619 39.8821 19.5071 39.8443C26.1761 38.1724 28.1768 36.1727 29.8495 29.5068C29.8873 29.3617 29.9722 29.2332 30.0909 29.1415C30.2096 29.0498 30.3554 29 30.5055 29C30.6555 29 30.8013 29.0498 30.92 29.1415C31.0387 29.2332 31.1236 29.3617 31.1614 29.5068C32.8342 36.1727 34.8239 38.1724 41.4929 39.8443C41.6381 39.8821 41.7667 39.967 41.8585 40.0856C41.9502 40.2043 42 40.35 42 40.5C42 40.65 41.9502 40.7957 41.8585 40.9144C41.7667 41.033 41.6381 41.1179 41.4929 41.1557Z" fill="white"/>
<path opacity="0.1" d="M112.493 11.1557C105.824 12.8276 103.834 14.8273 102.161 21.4932C102.124 21.6383 102.039 21.7668 101.92 21.8585C101.801 21.9503 101.656 22 101.505 22C101.355 22 101.21 21.9503 101.091 21.8585C100.972 21.7668 100.887 21.6383 100.849 21.4932C99.1768 14.8273 97.1761 12.8276 90.5071 11.1557C90.3619 11.1179 90.2333 11.033 90.1415 10.9144C90.0498 10.7957 90 10.65 90 10.5C90 10.35 90.0498 10.2043 90.1415 10.0856C90.2333 9.967 90.3619 9.88212 90.5071 9.84434C97.1761 8.17241 99.1768 6.17267 100.849 -0.493179C100.887 -0.63831 100.972 -0.766802 101.091 -0.858519C101.21 -0.950237 101.355 -1 101.505 -1C101.656 -1 101.801 -0.950237 101.92 -0.858519C102.039 -0.766802 102.124 -0.63831 102.161 -0.493179C103.834 6.17267 105.824 8.17241 112.493 9.84434C112.638 9.88212 112.767 9.967 112.858 10.0856C112.95 10.2043 113 10.35 113 10.5C113 10.65 112.95 10.7957 112.858 10.9144C112.767 11.033 112.638 11.1179 112.493 11.1557Z" fill="white"/>
</g>
<defs>
<clipPath id="clip0_2038_4317">
<rect width="400" height="50" fill="white" transform="translate(-87)"/>
</clipPath>
</defs>
</svg>
