<svg width="102" height="110" viewBox="0 0 102 110" fill="none" xmlns="http://www.w3.org/2000/svg">
<g style="mix-blend-mode:multiply" opacity="0.6">
<path d="M93.4291 50.5135C88.0319 46.2066 82.3019 42.3346 76.2928 38.9338C74.8115 28.7253 72.5876 18.6385 69.6388 8.75372C67.907 3.28301 61.253 -2.09651 56.1486 0.821205C50.5772 4.86913 45.9703 10.1002 42.6584 16.1392C40.3975 19.4166 38.4446 22.8962 36.8247 26.5335H36.0044C28.4458 26.0775 20.8666 26.0775 13.308 26.5335C7.47434 27.263 0.911503 27.263 0 33.8278C1.08648 45.0403 5.60673 55.6439 12.9433 64.1902C9.79804 69.3857 7.11403 74.8469 4.92213 80.5112C3.95115 82.5117 3.54012 84.738 3.73271 86.9535C3.9253 89.169 4.71432 91.2909 6.01592 93.0938C8.38583 96.2851 17.4097 96.2851 22.2407 94.735C33.7256 91.0879 38.192 90.2673 41.9292 88.8996C47.7163 94.4264 53.8021 99.6313 60.1592 104.491C68.5451 109.871 71.553 110.053 74.2875 108.412C79.3008 105.312 81.9442 83.976 81.3972 76.2258C87.1397 75.5876 100.903 72.8522 101.45 64.1902C101.078 61.4951 100.177 58.8998 98.801 56.553C97.4246 54.2062 95.5992 52.1539 93.4291 50.5135Z" fill="#8A7D63"/>
</g>
<path d="M5.36379 32.3576C5.36379 32.3576 4.4523 30.5341 10.1948 30.0782C16.9786 29.5319 23.8036 29.8074 30.5213 30.8988L36.9018 31.7194C39.2717 27.3428 41.4593 22.6016 41.4593 22.6016L36.9018 29.1664C28.7671 28.6535 20.6082 28.6535 12.4735 29.1664C7.82486 28.7105 4.26999 30.5341 5.36379 32.3576Z" fill="#FFF6E6"/>
<path d="M42.0884 21.7847C42.0884 21.7847 48.1955 10.0227 55.1229 12.6668C62.0503 15.311 62.5972 26.2524 63.2353 32.7261C62.5972 26.7083 63.2353 24.6112 61.868 12.6668C60.5008 0.722466 55.6698 1.63426 49.745 9.29325C46.7131 13.1431 44.1433 17.3356 42.0884 21.7847Z" fill="#FFF6E6"/>
<path d="M62.5239 28.9043C62.5239 28.9043 62.5239 34.9221 62.5239 38.0222C71.2369 42.1476 79.671 46.8381 87.7726 52.0637C91.054 55.2549 91.5097 57.352 90.5982 58.8109C90.5982 58.8109 93.7885 57.1697 89.231 52.0637C81.0416 45.5152 72.3219 39.6596 63.162 34.5574L62.5239 28.9043Z" fill="#FFF6E6"/>
<path d="M12.097 42.9375C15.7441 46.8294 19.7752 50.3424 24.1288 53.423C24.1288 53.423 7.72175 76.8559 8.5421 83.3296C8.5421 83.3296 6.7191 80.7766 11.0032 72.6617C15.2872 64.5468 20.9385 53.6966 20.9385 53.6966C20.9385 53.6966 14.8315 46.9494 12.097 42.9375Z" fill="#FFF6E6"/>
</svg>
