<svg width="24" height="24" viewBox="0 0 24 24" fill="none" xmlns="http://www.w3.org/2000/svg">
<g clip-path="url(#clip0_231_3474)">
<g filter="url(#filter0_d_231_3474)">
<path d="M6 2H15C15.5304 2 16.0391 2.21071 16.4142 2.58579C16.7893 2.96086 17 3.46957 17 4V6H15V4H6V20H15V18H17V20C17 20.5304 16.7893 21.0391 16.4142 21.4142C16.0391 21.7893 15.5304 22 15 22H6C5.46957 22 4.96086 21.7893 4.58579 21.4142C4.21071 21.0391 4 20.5304 4 20V4C4 3.46957 4.21071 2.96086 4.58579 2.58579C4.96086 2.21071 5.46957 2 6 2Z" fill="white"/>
<path d="M6 2H15C15.5304 2 16.0391 2.21071 16.4142 2.58579C16.7893 2.96086 17 3.46957 17 4V6H15V4H6V20H15V18H17V20C17 20.5304 16.7893 21.0391 16.4142 21.4142C16.0391 21.7893 15.5304 22 15 22H6C5.46957 22 4.96086 21.7893 4.58579 21.4142C4.21071 21.0391 4 20.5304 4 20V4C4 3.46957 4.21071 2.96086 4.58579 2.58579C4.96086 2.21071 5.46957 2 6 2Z" stroke="white" stroke-width="0.5" stroke-linejoin="round"/>
</g>
<g filter="url(#filter1_d_231_3474)">
<path d="M16.09 15.59L17.5 17L22.5 12L17.5 7L16.09 8.41L18.67 11H9V13H18.67L16.09 15.59Z" fill="white"/>
<path d="M16.09 15.59L17.5 17L22.5 12L17.5 7L16.09 8.41L18.67 11H9V13H18.67L16.09 15.59Z" stroke="white" stroke-width="0.5" stroke-linejoin="round"/>
</g>
</g>
<defs>
<filter id="filter0_d_231_3474" x="3.75" y="1.75" width="13.5" height="22.5" filterUnits="userSpaceOnUse" color-interpolation-filters="sRGB">
<feFlood flood-opacity="0" result="BackgroundImageFix"/>
<feColorMatrix in="SourceAlpha" type="matrix" values="0 0 0 0 0 0 0 0 0 0 0 0 0 0 0 0 0 0 127 0" result="hardAlpha"/>
<feOffset dy="2"/>
<feComposite in2="hardAlpha" operator="out"/>
<feColorMatrix type="matrix" values="0 0 0 0 0 0 0 0 0 0 0 0 0 0 0 0 0 0 0.15 0"/>
<feBlend mode="normal" in2="BackgroundImageFix" result="effect1_dropShadow_231_3474"/>
<feBlend mode="normal" in="SourceGraphic" in2="effect1_dropShadow_231_3474" result="shape"/>
</filter>
<filter id="filter1_d_231_3474" x="8.75" y="6.75" width="14" height="11.5" filterUnits="userSpaceOnUse" color-interpolation-filters="sRGB">
<feFlood flood-opacity="0" result="BackgroundImageFix"/>
<feColorMatrix in="SourceAlpha" type="matrix" values="0 0 0 0 0 0 0 0 0 0 0 0 0 0 0 0 0 0 127 0" result="hardAlpha"/>
<feOffset dy="1"/>
<feComposite in2="hardAlpha" operator="out"/>
<feColorMatrix type="matrix" values="0 0 0 0 0 0 0 0 0 0 0 0 0 0 0 0 0 0 0.15 0"/>
<feBlend mode="normal" in2="BackgroundImageFix" result="effect1_dropShadow_231_3474"/>
<feBlend mode="normal" in="SourceGraphic" in2="effect1_dropShadow_231_3474" result="shape"/>
</filter>
<clipPath id="clip0_231_3474">
<rect width="24" height="24" fill="white"/>
</clipPath>
</defs>
</svg>
