<svg width="102" height="110" viewBox="0 0 102 110" fill="none" xmlns="http://www.w3.org/2000/svg">
<g style="mix-blend-mode:multiply" opacity="0.6">
<path d="M93.4291 50.6014C88.0319 46.2945 82.3019 42.4225 76.2928 39.0217C74.8115 28.8132 72.5876 18.7264 69.6388 8.84161C67.907 3.3709 61.253 -2.00862 56.1486 0.909096C50.5772 4.95702 45.9703 10.1881 42.6584 16.2271C40.3975 19.5045 38.4446 22.9841 36.8247 26.6214H36.0044C28.4458 26.1654 20.8666 26.1654 13.308 26.6214C7.47434 27.3509 0.911503 27.3508 0 33.9157C1.08648 45.1281 5.60673 55.7317 12.9433 64.2781C9.79804 69.4736 7.11403 74.9348 4.92213 80.5991C3.95115 82.5996 3.54012 84.8259 3.73271 87.0414C3.9253 89.2569 4.71432 91.3788 6.01592 93.1817C8.38583 96.3729 17.4097 96.373 22.2407 94.8229C33.7256 91.1758 38.192 90.3552 41.9292 88.9875C47.7163 94.5142 53.8021 99.7192 60.1592 104.579C68.5451 109.959 71.553 110.141 74.2875 108.5C79.3008 105.4 81.9442 84.0639 81.3972 76.3137C87.1397 75.6755 100.903 72.9401 101.45 64.2781C101.078 61.5829 100.177 58.9877 98.801 56.6409C97.4246 54.2941 95.5992 52.2418 93.4291 50.6014Z" fill="#8A7D63"/>
</g>
<path d="M89.1271 46.7622C82.4978 41.6547 75.5569 36.9651 68.3448 32.7207C67.8525 23.9178 66.6638 15.1677 64.79 6.55254C64.5636 5.33833 64.06 4.19279 63.3184 3.20517C62.5769 2.21755 61.6175 1.41452 60.5148 0.858616C59.4122 0.302712 58.1961 0.00892565 56.9614 0.000200236C55.7266 -0.00852518 54.5065 0.268021 53.3962 0.808286C48.1623 4.55827 43.7821 9.3749 40.544 14.9409C38.5175 18.09 36.7202 21.381 35.1661 24.7882H34.3458C27.1507 24.3779 19.9382 24.3779 12.7431 24.7882C7.27413 25.4265 0.984745 25.4265 0.0732422 31.5354C0.128011 35.7049 1.79394 39.6912 4.72191 42.6592C8.36792 47.4005 11.5582 51.777 15.5688 55.9712C12.1005 61.8251 9.0544 67.9191 6.45377 74.2069C5.26882 77.4894 2.80776 85.3307 6.45377 87.9749C8.3826 88.8659 10.4818 89.3274 12.6064 89.3274C14.731 89.3274 16.8302 88.8659 18.7591 87.9749C26.1554 85.1731 33.318 81.7889 40.1794 77.8541C45.2453 83.8828 50.6309 89.6353 56.313 95.0868C59.3209 98.0045 66.1572 104.205 70.259 101.378C74.3607 98.5516 73.6315 92.9897 73.6315 89.1602C73.6315 81.9571 73.6315 74.5716 72.8112 67.3686C78.1891 66.7303 83.5669 66.0921 88.9448 64.9979C92.682 64.3597 97.1483 62.2626 97.1483 57.7037C97.1483 53.1447 92.2262 49.2241 89.1271 46.7622Z" fill="url(#paint0_linear_228_2962)"/>
<path style="mix-blend-mode:multiply" d="M89.1271 46.7754L86.3014 44.6783C88.0445 46.0208 89.2879 47.9086 89.8331 50.0405C90.3783 52.1724 90.1939 54.4255 89.3094 56.4404C86.7572 60.9993 78.2802 62.0022 73.1758 62.3669C66.3395 62.914 70.6236 69.023 67.8891 75.3143C62.6935 87.7146 47.9272 81.1497 43.1873 73.6731C39.9971 68.8406 27.7829 78.6879 20.3086 70.1171C19.1997 68.637 18.4496 66.9194 18.1174 65.0998C17.7853 63.2802 17.8801 61.4083 18.3945 59.6316C20.7644 52.6108 16.9361 51.5167 13.4723 46.6843C8.18563 39.1165 4.35732 28.4486 13.4723 28.4486C20.3438 28.2585 27.2206 28.4411 34.0723 28.9956C37.8095 28.9956 39.0856 22.2484 44.2811 13.86C45.4661 11.9452 49.659 5.19805 50.6617 3.00977C46.9878 6.60201 43.7453 10.6105 40.9997 14.9541C38.8169 18.0893 36.8671 21.3806 35.1661 24.8014H34.3458C27.1507 24.3911 19.9382 24.3911 12.7431 24.8014C7.27413 25.4397 0.984745 25.4397 0.0732422 31.5486C0.128011 35.7181 1.79394 39.7044 4.72191 42.6724C8.36792 47.4137 11.5582 51.7902 15.5688 55.9844C12.1005 61.8383 9.0544 67.9323 6.45377 74.2201C5.26882 77.5026 2.80776 85.3439 6.45377 87.9881C8.3826 88.8791 10.4818 89.3406 12.6064 89.3406C14.731 89.3406 16.8302 88.8791 18.7591 87.9881C26.1554 85.1863 33.318 81.8021 40.1794 77.8673C45.2453 83.896 50.6309 89.6485 56.313 95.1C59.3209 98.0177 66.1572 104.218 70.259 101.391C74.3607 98.5648 73.6315 93.0029 73.6315 89.1734C73.6315 81.9703 73.6315 74.5848 72.8112 67.3817C78.1891 66.7435 83.5669 66.1053 88.9448 65.0111C92.682 64.3729 97.1483 62.2758 97.1483 57.7169C97.1483 53.1579 92.2262 49.2372 89.1271 46.7754Z" fill="url(#paint1_radial_228_2962)"/>
<g style="mix-blend-mode:multiply">
<path d="M89.1271 46.7622C82.4978 41.6547 75.5569 36.9651 68.3448 32.7207C67.8525 23.9178 66.6638 15.1677 64.79 6.55254C64.5636 5.33833 64.06 4.19279 63.3184 3.20517C62.5769 2.21755 61.6175 1.41452 60.5148 0.858616C59.4122 0.302712 58.1961 0.00892565 56.9614 0.000200236C55.7266 -0.00852518 54.5065 0.268021 53.3962 0.808286C48.1623 4.55827 43.7821 9.3749 40.544 14.9409C38.5175 18.09 36.7202 21.381 35.1661 24.7882H34.3458C27.1507 24.3779 19.9382 24.3779 12.7431 24.7882C7.27413 25.4265 0.984745 25.4265 0.0732422 31.5354C0.128011 35.7049 1.79394 39.6912 4.72191 42.6592C8.36792 47.4005 11.5582 51.777 15.5688 55.9712C12.1005 61.8251 9.0544 67.9191 6.45377 74.2069C5.26882 77.4894 2.80776 85.3307 6.45377 87.9749C8.3826 88.8659 10.4818 89.3274 12.6064 89.3274C14.731 89.3274 16.8302 88.8659 18.7591 87.9749C26.1554 85.1731 33.318 81.7889 40.1794 77.8541C45.2453 83.8828 50.6309 89.6353 56.313 95.0868C59.3209 98.0045 66.1572 104.205 70.259 101.378C74.3607 98.5516 73.6315 92.9897 73.6315 89.1602C73.6315 81.9571 73.6315 74.5716 72.8112 67.3686C78.1891 66.7303 83.5669 66.0921 88.9448 64.9979C92.682 64.3597 97.1483 62.2626 97.1483 57.7037C97.1483 53.1447 92.2262 49.2241 89.1271 46.7622ZM91.1324 59.436C88.9446 60.5115 86.5506 61.1024 84.1138 61.1684C79.4651 61.8067 74.9988 62.4449 70.1678 62.8096C69.7794 62.8607 69.4097 63.0073 69.0918 63.2363C68.7738 63.4653 68.5176 63.7695 68.3461 64.1218C68.1745 64.4741 68.0929 64.8635 68.1086 65.255C68.1243 65.6466 68.2368 66.0282 68.436 66.3656C68.436 71.9275 68.436 77.4894 69.074 83.1425C69.5739 87.0167 69.5739 90.9391 69.074 94.8133C67.5245 102.016 58.8652 91.8044 56.6776 89.5249C51.8345 84.8456 47.2402 79.9152 42.9139 74.754C41.8201 73.6599 40.9086 73.204 40.544 73.3864C36.3511 75.4835 26.1422 80.1335 23.4077 81.5924C19.7069 83.3931 15.8268 84.799 11.8316 85.7866C4.17501 87.519 10.3732 74.8452 11.8316 72.1098C14.1104 67.095 17.0272 62.3538 19.3971 57.4301C20.2175 55.6977 21.0378 55.0595 20.0352 53.783C15.1222 48.2024 10.5561 42.3255 6.36262 36.1855C5.08651 34.0884 4.26616 30.5325 7.09182 29.256C15.4367 27.9149 23.8996 27.4565 32.3404 27.8883C35.2572 27.8883 36.898 28.7089 36.9891 28.4354C39.7724 23.594 42.8151 18.9067 46.1041 14.3939C47.836 12.2056 54.49 1.173 59.3209 3.72599C62.2378 5.36721 62.9669 11.8409 63.3316 14.9409C64.1519 21.5058 64.5165 27.6148 64.9723 34.5443C64.9723 35.0914 67.3422 36.2767 70.3501 38.1915C77.3013 42.1787 83.836 46.8521 89.8563 52.1418C91.1324 53.2359 94.1403 57.1566 91.1324 59.436Z" fill="#D47F02"/>
</g>
<path d="M5.36379 32.4455C5.36379 32.4455 4.4523 30.622 10.1948 30.1661C16.9786 29.6198 23.8036 29.8953 30.5213 30.9867L36.9018 31.8073C39.2717 27.4307 41.4593 22.6895 41.4593 22.6895L36.9018 29.2543C28.7671 28.7414 20.6082 28.7414 12.4735 29.2543C7.82486 28.7984 4.26999 30.622 5.36379 32.4455Z" fill="#FFF6E6"/>
<path d="M42.0884 21.8726C42.0884 21.8726 48.1955 10.1106 55.1229 12.7547C62.0503 15.3989 62.5972 26.3403 63.2353 32.814C62.5972 26.7962 63.2353 24.6991 61.868 12.7547C60.5008 0.810356 55.6698 1.72215 49.745 9.38114C46.7131 13.231 44.1433 17.4235 42.0884 21.8726Z" fill="#FFF6E6"/>
<path d="M62.5239 28.9922C62.5239 28.9922 62.5239 35.01 62.5239 38.11C71.2369 42.2355 79.671 46.926 87.7726 52.1516C91.054 55.3428 91.5097 57.4399 90.5982 58.8988C90.5982 58.8988 93.7885 57.2576 89.231 52.1516C81.0416 45.6031 72.3219 39.7475 63.162 34.6453L62.5239 28.9922Z" fill="#FFF6E6"/>
<path d="M12.097 43.0254C15.7441 46.9172 19.7752 50.4303 24.1288 53.5109C24.1288 53.5109 7.72175 76.9438 8.5421 83.4175C8.5421 83.4175 6.7191 80.8645 11.0032 72.7496C15.2872 64.6347 20.9385 53.7845 20.9385 53.7845C20.9385 53.7845 14.8315 47.0372 12.097 43.0254Z" fill="#FFF6E6"/>
<defs>
<linearGradient id="paint0_linear_228_2962" x1="36.3511" y1="99.1899" x2="51.3997" y2="30.9903" gradientUnits="userSpaceOnUse">
<stop offset="0.11" stop-color="#FFFB74"/>
<stop offset="0.49" stop-color="#FFFA00"/>
<stop offset="0.93" stop-color="#FFC921"/>
</linearGradient>
<radialGradient id="paint1_radial_228_2962" cx="0" cy="0" r="1" gradientUnits="userSpaceOnUse" gradientTransform="translate(53.1628 30.2284) scale(71.7608 74.5439)">
<stop offset="0.41" stop-color="#FFFB62"/>
<stop offset="0.85" stop-color="#F39F46"/>
</radialGradient>
</defs>
</svg>
