<svg width="19" height="21" viewBox="0 0 19 21" fill="none" xmlns="http://www.w3.org/2000/svg">
<g filter="url(#filter0_d_231_3496)">
<path d="M7.575 1.567C8.001 -0.189 10.499 -0.189 10.925 1.567C10.9889 1.8308 11.1142 2.07578 11.2907 2.282C11.4672 2.48822 11.6899 2.64985 11.9407 2.75375C12.1914 2.85764 12.4632 2.90085 12.7338 2.87987C13.0044 2.85889 13.2662 2.7743 13.498 2.633C15.041 1.693 16.808 3.459 15.868 5.003C15.7269 5.23466 15.6424 5.49634 15.6215 5.76677C15.6006 6.03721 15.6438 6.30877 15.7475 6.55938C15.8513 6.80999 16.0127 7.03258 16.2187 7.20905C16.4247 7.38553 16.6694 7.51091 16.933 7.575C18.689 8.001 18.689 10.499 16.933 10.925C16.6692 10.9889 16.4242 11.1142 16.218 11.2907C16.0118 11.4672 15.8501 11.6899 15.7463 11.9407C15.6424 12.1914 15.5991 12.4632 15.6201 12.7338C15.6411 13.0044 15.7257 13.2662 15.867 13.498C16.807 15.041 15.041 16.808 13.497 15.868C13.2653 15.7269 13.0037 15.6424 12.7332 15.6215C12.4628 15.6006 12.1912 15.6438 11.9406 15.7475C11.69 15.8513 11.4674 16.0127 11.2909 16.2187C11.1145 16.4247 10.9891 16.6694 10.925 16.933C10.499 18.689 8.001 18.689 7.575 16.933C7.51108 16.6692 7.38578 16.4242 7.20929 16.218C7.0328 16.0118 6.81011 15.8501 6.55935 15.7463C6.30859 15.6424 6.03683 15.5991 5.76621 15.6201C5.49559 15.6411 5.23375 15.7257 5.002 15.867C3.459 16.807 1.692 15.041 2.632 13.497C2.7731 13.2653 2.85755 13.0037 2.87848 12.7332C2.89942 12.4628 2.85624 12.1912 2.75247 11.9406C2.6487 11.69 2.48726 11.4674 2.28127 11.2909C2.07529 11.1145 1.83056 10.9891 1.567 10.925C-0.189 10.499 -0.189 8.001 1.567 7.575C1.8308 7.51108 2.07578 7.38578 2.282 7.20929C2.48822 7.0328 2.64985 6.81011 2.75375 6.55935C2.85764 6.30859 2.90085 6.03683 2.87987 5.76621C2.85889 5.49559 2.7743 5.23375 2.633 5.002C1.693 3.459 3.459 1.692 5.003 2.632C6.003 3.24 7.299 2.702 7.575 1.567Z" fill="white"/>
<path d="M7.575 1.567C8.001 -0.189 10.499 -0.189 10.925 1.567C10.9889 1.8308 11.1142 2.07578 11.2907 2.282C11.4672 2.48822 11.6899 2.64985 11.9407 2.75375C12.1914 2.85764 12.4632 2.90085 12.7338 2.87987C13.0044 2.85889 13.2662 2.7743 13.498 2.633C15.041 1.693 16.808 3.459 15.868 5.003C15.7269 5.23466 15.6424 5.49634 15.6215 5.76677C15.6006 6.03721 15.6438 6.30877 15.7475 6.55938C15.8513 6.80999 16.0127 7.03258 16.2187 7.20905C16.4247 7.38553 16.6694 7.51091 16.933 7.575C18.689 8.001 18.689 10.499 16.933 10.925C16.6692 10.9889 16.4242 11.1142 16.218 11.2907C16.0118 11.4672 15.8501 11.6899 15.7463 11.9407C15.6424 12.1914 15.5991 12.4632 15.6201 12.7338C15.6411 13.0044 15.7257 13.2662 15.867 13.498C16.807 15.041 15.041 16.808 13.497 15.868C13.2653 15.7269 13.0037 15.6424 12.7332 15.6215C12.4628 15.6006 12.1912 15.6438 11.9406 15.7475C11.69 15.8513 11.4674 16.0127 11.2909 16.2187C11.1145 16.4247 10.9891 16.6694 10.925 16.933C10.499 18.689 8.001 18.689 7.575 16.933C7.51108 16.6692 7.38578 16.4242 7.20929 16.218C7.0328 16.0118 6.81011 15.8501 6.55935 15.7463C6.30859 15.6424 6.03683 15.5991 5.76621 15.6201C5.49559 15.6411 5.23375 15.7257 5.002 15.867C3.459 16.807 1.692 15.041 2.632 13.497C2.7731 13.2653 2.85755 13.0037 2.87848 12.7332C2.89942 12.4628 2.85624 12.1912 2.75247 11.9406C2.6487 11.69 2.48726 11.4674 2.28127 11.2909C2.07529 11.1145 1.83056 10.9891 1.567 10.925C-0.189 10.499 -0.189 8.001 1.567 7.575C1.8308 7.51108 2.07578 7.38578 2.282 7.20929C2.48822 7.0328 2.64985 6.81011 2.75375 6.55935C2.85764 6.30859 2.90085 6.03683 2.87987 5.76621C2.85889 5.49559 2.7743 5.23375 2.633 5.002C1.693 3.459 3.459 1.692 5.003 2.632C6.003 3.24 7.299 2.702 7.575 1.567Z" stroke="white" stroke-width="0.5" stroke-linejoin="round"/>
</g>
<g filter="url(#filter1_d_231_3496)">
<path d="M6.25 9.25C6.25 10.0456 6.56607 10.8087 7.12868 11.3713C7.69129 11.9339 8.45435 12.25 9.25 12.25C10.0456 12.25 10.8087 11.9339 11.3713 11.3713C11.9339 10.8087 12.25 10.0456 12.25 9.25C12.25 8.45435 11.9339 7.69129 11.3713 7.12868C10.8087 6.56607 10.0456 6.25 9.25 6.25C8.45435 6.25 7.69129 6.56607 7.12868 7.12868C6.56607 7.69129 6.25 8.45435 6.25 9.25Z" fill="#599FF4"/>
<path d="M6.25 9.25C6.25 10.0456 6.56607 10.8087 7.12868 11.3713C7.69129 11.9339 8.45435 12.25 9.25 12.25C10.0456 12.25 10.8087 11.9339 11.3713 11.3713C11.9339 10.8087 12.25 10.0456 12.25 9.25C12.25 8.45435 11.9339 7.69129 11.3713 7.12868C10.8087 6.56607 10.0456 6.25 9.25 6.25C8.45435 6.25 7.69129 6.56607 7.12868 7.12868C6.56607 7.69129 6.25 8.45435 6.25 9.25Z" stroke="white" stroke-width="0.5" stroke-linejoin="round"/>
</g>
<defs>
<filter id="filter0_d_231_3496" x="0" y="0" width="18.5" height="20.5" filterUnits="userSpaceOnUse" color-interpolation-filters="sRGB">
<feFlood flood-opacity="0" result="BackgroundImageFix"/>
<feColorMatrix in="SourceAlpha" type="matrix" values="0 0 0 0 0 0 0 0 0 0 0 0 0 0 0 0 0 0 127 0" result="hardAlpha"/>
<feOffset dy="2"/>
<feComposite in2="hardAlpha" operator="out"/>
<feColorMatrix type="matrix" values="0 0 0 0 0 0 0 0 0 0 0 0 0 0 0 0 0 0 0.15 0"/>
<feBlend mode="normal" in2="BackgroundImageFix" result="effect1_dropShadow_231_3496"/>
<feBlend mode="normal" in="SourceGraphic" in2="effect1_dropShadow_231_3496" result="shape"/>
</filter>
<filter id="filter1_d_231_3496" x="6" y="6" width="6.5" height="8.5" filterUnits="userSpaceOnUse" color-interpolation-filters="sRGB">
<feFlood flood-opacity="0" result="BackgroundImageFix"/>
<feColorMatrix in="SourceAlpha" type="matrix" values="0 0 0 0 0 0 0 0 0 0 0 0 0 0 0 0 0 0 127 0" result="hardAlpha"/>
<feOffset dy="2"/>
<feComposite in2="hardAlpha" operator="out"/>
<feColorMatrix type="matrix" values="0 0 0 0 0 0 0 0 0 0 0 0 0 0 0 0 0 0 0.15 0"/>
<feBlend mode="normal" in2="BackgroundImageFix" result="effect1_dropShadow_231_3496"/>
<feBlend mode="normal" in="SourceGraphic" in2="effect1_dropShadow_231_3496" result="shape"/>
</filter>
</defs>
</svg>
