<svg width="36" height="34" viewBox="0 0 36 34" fill="none" xmlns="http://www.w3.org/2000/svg">
<g style="mix-blend-mode:multiply" opacity="0.6">
<path d="M34.9753 11.9C33.507 11.0803 31.9231 10.4878 30.2774 10.1427C29.1676 9.88376 23.9889 8.79236 23.9889 8.79236C23.9268 8.39294 23.802 8.00587 23.6189 7.6455C22.3781 5.38747 20.7576 3.36005 18.8286 1.65217C17.5154 0.708779 16.2022 -0.327097 15.3699 0.0983549C15.0059 0.348693 14.7025 0.67737 14.4821 1.06025C13.7607 2.05914 15.4809 3.35399 14.778 4.35288C13.2923 6.29666 12.05 8.41501 11.0789 10.6607C11.0124 10.6417 10.9419 10.6417 10.8754 10.6607C9.28481 10.9196 7.69418 11.1046 6.10355 11.4006C4.51293 11.6965 1.86805 10.9381 0.425392 12.1405C0.293529 12.2521 0.187272 12.3909 0.113862 12.5473C0.0404526 12.7037 0.00162373 12.8741 0 13.0469C0.678421 15.7041 2.03603 18.1391 3.93957 20.1131C8.32303 24.7006 7.63869 25.015 7.49073 26.5134C7.34276 28.0117 6.23303 29.1401 6.21454 30.9159C6.13282 31.3311 6.14522 31.7593 6.25085 32.1691C6.35647 32.5788 6.55263 32.9597 6.82488 33.2836C7.49073 34.1345 8.67445 33.6166 9.39578 33.2836C10.9082 32.5956 12.3619 31.7852 13.7423 30.8604C16.2022 29.4915 16.4981 28.3816 18.5326 26.8278C18.5326 26.8278 20.3822 28.6776 20.8446 29.0291C22.7126 30.5307 24.741 31.8211 26.8927 32.8766C27.8729 33.2836 29.0936 33.5796 29.815 32.5992C30.6724 30.879 30.8634 28.9024 30.3513 27.0498C30.2219 26.1804 30.0554 25.311 29.889 24.4601L29.1491 20.853C29.1491 20.853 34.2909 16.691 35.3452 13.3429C35.4227 13.0916 35.4291 12.8239 35.3638 12.5692C35.2985 12.3146 35.164 12.083 34.9753 11.9Z" fill="#8A7D63"/>
</g>
<path d="M30.6074 10.9379C30.4701 10.7757 30.291 10.6542 30.0895 10.5864C29.1446 10.2615 28.1729 10.0201 27.1857 9.86501C26.6309 9.75402 26.076 9.64304 25.5211 9.49506C24.5963 9.27308 21.3411 8.64415 20.9712 8.62565C20.6013 8.60716 19.843 7.09033 19.5285 6.40591C19.2141 5.72149 18.7517 4.55613 18.3078 3.57574C18.0345 2.94226 17.7258 2.32469 17.383 1.72595C16.9022 0.875045 15.9034 -0.327323 14.8861 0.449589C14.5924 0.686731 14.3366 0.967445 14.1278 1.28199L12.2782 3.8902C10.9968 5.60089 9.93432 7.46515 9.11549 9.43957H8.94902C7.61734 9.68004 6.28566 9.82802 4.95397 10.1055C3.31123 10.299 1.73853 10.8825 0.367047 11.8073C0.15168 12.0172 0.0257611 12.3022 0.015625 12.6027C0.015625 13.3981 0.958915 14.2675 1.4583 14.7855C1.91052 15.2412 2.38587 15.6734 2.88246 16.0803C3.51131 16.6167 4.17715 17.1162 4.73202 17.6526C5.28689 18.1891 5.93424 18.818 6.58158 19.3729C6.33518 20.6755 6.16229 21.991 6.06371 23.313C5.87003 24.8474 5.7589 26.3911 5.73079 27.9375C5.57232 28.9782 5.73356 30.0425 6.19318 30.9896C6.74805 31.7295 8.15371 31.0821 8.74557 30.7306C9.5372 30.194 10.2689 29.5738 10.9281 28.8808C12.5372 27.4195 13.8689 25.6437 15.5705 24.2934V24.1824C16.2178 24.0529 17.0686 24.9223 17.42 25.2553L19.584 27.1051C20.7974 28.4239 22.2227 29.5306 23.801 30.3792C24.6148 30.7307 25.6506 30.9896 26.2424 30.1387C26.625 29.2252 26.6965 28.2112 26.4459 27.253C26.2609 25.9212 25.9835 24.6078 25.7801 23.276C25.5766 21.9441 25.2252 20.7418 25.0032 19.2064C25.3917 18.744 25.854 18.3001 26.187 17.8931L26.9638 17.0422C27.7221 16.2468 28.4804 15.4514 29.1648 14.582C29.7917 13.8809 30.2755 13.064 30.5889 12.1772C30.6988 11.9898 30.7582 11.7772 30.7614 11.56C30.7647 11.3428 30.7116 11.1285 30.6074 10.9379Z" fill="url(#paint0_linear_224_1881)"/>
<path style="mix-blend-mode:screen" d="M1.99518 12.2332C3.56731 12.5107 8.02476 13.9165 9.39343 14.3605C10.7621 14.8044 14.6277 16.5247 14.6277 16.5247C14.6277 16.5247 13.185 14.7859 11.354 12.6956C10.4922 11.6815 9.79334 10.5395 9.28246 9.31055H9.11601C7.78432 9.55102 6.45263 9.69898 5.12095 9.97644C3.4782 10.1699 1.90552 10.7535 0.534039 11.6783C0.328362 11.8722 0.202947 12.1362 0.182617 12.4182C0.761937 12.2063 1.38502 12.1427 1.99518 12.2332Z" fill="url(#paint1_radial_224_1881)"/>
<path style="mix-blend-mode:screen" d="M14.6866 16.3198C15.0381 15.6908 16.2588 13.6006 17.5905 11.7138C18.4505 10.4615 19.5507 9.39259 20.8272 8.56912C20.2773 7.92544 19.8397 7.19381 19.5325 6.40487C19.1256 5.46147 18.7557 4.55507 18.3118 3.57468C18.0385 2.94121 17.7298 2.32363 17.387 1.72489C17.0643 1.04301 16.4963 0.507955 15.7964 0.226562C14.911 2.99139 14.4313 5.87003 14.3722 8.7726C14.1228 11.2906 14.2286 13.8312 14.6866 16.3198Z" fill="url(#paint2_radial_224_1881)"/>
<path d="M30.6074 10.9379C30.4701 10.7757 30.291 10.6542 30.0895 10.5864C29.1446 10.2615 28.1729 10.0201 27.1857 9.86501C26.6309 9.75402 26.076 9.64304 25.5211 9.49506C24.5963 9.27308 21.3411 8.64415 20.9712 8.62565C20.6013 8.60716 19.843 7.09033 19.5285 6.40591C19.2141 5.72149 18.7517 4.55613 18.3078 3.57574C18.0345 2.94226 17.7258 2.32469 17.383 1.72595C16.9022 0.875045 15.9034 -0.327323 14.8861 0.449589C14.5924 0.686731 14.3366 0.967445 14.1278 1.28199L12.2782 3.8902C10.9968 5.60089 9.93432 7.46515 9.11549 9.43957H8.94902C7.61734 9.68004 6.28566 9.82802 4.95397 10.1055C3.31123 10.299 1.73853 10.8825 0.367047 11.8073C0.15168 12.0172 0.0257611 12.3022 0.015625 12.6027C0.015625 13.3981 0.958915 14.2675 1.4583 14.7855C1.91052 15.2412 2.38587 15.6734 2.88246 16.0803C3.51131 16.6167 4.17715 17.1162 4.73202 17.6526C5.28689 18.1891 5.93424 18.818 6.58158 19.3729C6.33518 20.6755 6.16229 21.991 6.06371 23.313C5.87003 24.8474 5.7589 26.3911 5.73079 27.9375C5.57232 28.9782 5.73356 30.0425 6.19318 30.9896C6.74805 31.7295 8.15371 31.0821 8.74557 30.7306C9.5372 30.194 10.2689 29.5738 10.9281 28.8808C12.5372 27.4195 13.8689 25.6437 15.5705 24.2934V24.1824C16.2178 24.0529 17.0686 24.9223 17.42 25.2553L19.584 27.1051C20.7974 28.4239 22.2227 29.5306 23.801 30.3792C24.6148 30.7307 25.6506 30.9896 26.2424 30.1387C26.625 29.2252 26.6965 28.2112 26.4459 27.253C26.2609 25.9212 25.9835 24.6078 25.7801 23.276C25.5766 21.9441 25.2252 20.7418 25.0032 19.2064C25.3917 18.744 25.854 18.3001 26.187 17.8931L26.9638 17.0422C27.7221 16.2468 28.4804 15.4514 29.1648 14.582C29.7917 13.8809 30.2755 13.064 30.5889 12.1772C30.6988 11.9898 30.7582 11.7772 30.7614 11.56C30.7647 11.3428 30.7116 11.1285 30.6074 10.9379ZM30.293 12.3067C30.0023 13.0246 29.5823 13.6829 29.0538 14.249L28.314 15.0814C27.7776 15.7104 27.1857 16.3208 26.6124 16.9312C26.3719 17.1902 26.15 17.4491 25.928 17.7266C25.4797 18.1618 25.0596 18.6252 24.6703 19.114C24.5409 19.3174 25.5581 23.1835 25.891 25.0518C26.1023 26.0714 26.2505 27.1031 26.3349 28.1409C26.391 28.6613 26.3534 29.1876 26.224 29.6947C26.039 30.3422 25.4841 30.2127 24.9847 30.1387C23.8542 29.7089 22.8086 29.0827 21.896 28.2889C20.8787 27.3825 19.8984 26.4391 18.8442 25.5512C18.1414 24.9593 16.2733 23.461 15.7554 23.7015L15.441 23.9419C13.9613 25.1443 12.7406 26.6796 11.3904 28.0114C10.8094 28.6334 10.1918 29.2203 9.54088 29.7688C9.19433 30.0474 8.81553 30.2834 8.41265 30.4717C8.23376 30.5783 8.04074 30.6593 7.83929 30.7121C7.65408 30.7366 7.46572 30.7176 7.28914 30.6566C7.11256 30.5956 6.95262 30.4943 6.82202 30.3607C6.6565 30.0151 6.5802 29.6335 6.60008 29.2508C6.5446 28.2095 6.5446 27.166 6.60008 26.1247C6.60008 24.9778 6.80353 23.8124 6.95149 22.6655C7.22302 21.4514 7.35337 20.21 7.33991 18.966C6.15619 17.9671 5.04645 16.8942 3.82574 15.9323C2.54353 14.955 1.40426 13.8031 0.441031 12.5102C0.607492 11.3264 2.75299 10.9564 3.69627 10.6604C5.54583 10.235 7.3954 10.0315 9.24496 9.68005C9.27855 9.67273 9.30974 9.65699 9.33561 9.63435C9.36149 9.61171 9.3812 9.58288 9.39292 9.55055C10.4102 7.95973 11.2425 6.27643 12.3152 4.70411C12.8331 3.9087 13.3695 3.1503 13.9059 2.37339C14.4422 1.59647 14.8121 0.708575 15.626 0.523596C16.1438 0.653081 16.6432 1.50398 16.8652 1.87393C17.3686 2.70222 17.8076 3.568 18.1783 4.46363C18.5113 5.22204 18.8257 6.01745 19.1586 6.77586C19.4142 7.49207 19.7427 8.1801 20.1389 8.82913C20.1739 8.86997 20.2184 8.90172 20.2684 8.92163C20.5643 9.23609 20.9342 9.2176 21.4151 9.27309C22.4699 9.38539 23.5148 9.57708 24.5409 9.84652C25.6691 10.124 26.7973 10.3275 27.9071 10.5864C28.4651 10.6974 29.015 10.8458 29.5532 11.0304C30.219 11.2339 30.5334 11.4928 30.293 12.3067Z" fill="#D05900"/>
<g style="mix-blend-mode:multiply">
<g style="mix-blend-mode:multiply">
<path style="mix-blend-mode:multiply" d="M17.587 11.7151C16.2553 13.5649 15.0346 15.6921 14.6832 16.3211C14.6805 16.3642 14.6805 16.4074 14.6832 16.4505C17.4168 14.9941 20.2618 13.757 23.1912 12.7509C27.4267 11.3636 30.3305 11.1971 30.9039 11.6781C30.8898 11.3966 30.7787 11.1286 30.5895 10.9197C30.4521 10.7575 30.273 10.6359 30.0716 10.5682C29.1266 10.2433 28.1549 10.0019 27.1678 9.84678C26.6129 9.73579 26.058 9.62481 25.5032 9.47683C24.5784 9.25485 21.3231 8.62592 20.9532 8.60742C20.9051 8.62298 20.8534 8.62298 20.8053 8.60742C19.5389 9.42196 18.4454 10.4779 17.587 11.7151Z" fill="url(#paint3_radial_224_1881)"/>
</g>
</g>
<path style="mix-blend-mode:multiply" d="M14.5571 16.524H14.7051C14.7024 16.4809 14.7024 16.4376 14.7051 16.3945L14.5571 16.524Z" fill="url(#paint4_radial_224_1881)"/>
<g style="mix-blend-mode:multiply">
<path style="mix-blend-mode:multiply" d="M14.5564 16.5239L14.6858 16.3204C14.2208 13.8077 14.1149 11.2418 14.3714 8.6993C14.4305 5.79674 14.9102 2.91808 15.7956 0.153254C15.6378 0.115253 15.4732 0.115597 15.3155 0.154213C15.1578 0.192829 15.0117 0.268616 14.8893 0.375247C14.5955 0.61239 14.3398 0.893104 14.131 1.20765L12.2814 3.81586C11.0084 5.53207 9.94652 7.39525 9.11865 9.36522C9.62953 10.5942 10.3284 11.7362 11.1902 12.7503C13.1137 14.7851 14.5564 16.5239 14.5564 16.5239Z" fill="url(#paint5_radial_224_1881)"/>
</g>
<g style="mix-blend-mode:multiply">
<path style="mix-blend-mode:multiply" d="M14.6675 16.5234C16.8607 18.1293 18.9036 19.931 20.771 21.9063C22.9588 24.4938 24.7708 27.377 26.1533 30.4708C26.3086 30.3778 26.4412 30.2514 26.5417 30.1008C26.9242 29.1873 26.9957 28.1733 26.7451 27.2152C26.5602 25.8833 26.2827 24.57 26.0793 23.2382C25.8758 21.9063 25.5614 20.8334 25.358 19.5386L24.8401 19.2611C21.6687 17.6713 18.2083 16.74 14.6675 16.5234Z" fill="url(#paint6_radial_224_1881)"/>
</g>
<path style="mix-blend-mode:multiply" opacity="0.4" d="M23.2106 12.7682C20.2812 13.7743 17.4363 15.0114 14.7026 16.4678C18.2283 16.6778 21.6755 17.5963 24.8383 19.1685L25.3561 19.446V19.1685C25.7445 18.7061 26.2069 18.2621 26.5398 17.8552L27.3167 17.0043C28.075 16.2088 28.8333 15.4134 29.5176 14.544C30.1446 13.843 30.6284 13.0261 30.9418 12.1393C30.9675 11.9738 30.9675 11.8054 30.9418 11.6399C30.3499 11.2144 27.4461 11.3809 23.2106 12.7682Z" fill="url(#paint7_radial_224_1881)"/>
<path style="mix-blend-mode:multiply" opacity="0.5" d="M14.6309 16.5801C14.9161 19.1896 15.5378 21.7513 16.4804 24.2012C16.9643 24.4612 17.4068 24.7916 17.7936 25.1816L19.9576 27.0314C21.171 28.3502 22.5963 29.4569 24.1746 30.3055C24.4836 30.4841 24.8298 30.5887 25.186 30.6112C25.5421 30.6337 25.8987 30.5734 26.2277 30.435C24.8204 27.3704 22.99 24.5186 20.7899 21.963C18.9049 19.985 16.8433 18.1833 14.6309 16.5801Z" fill="url(#paint8_radial_224_1881)"/>
<g style="mix-blend-mode:multiply">
<path style="mix-blend-mode:multiply" d="M14.5553 16.525C14.5553 16.525 10.6343 14.8231 9.32107 14.3607C8.00788 13.8982 3.56892 12.5109 1.92281 12.2334C1.30059 12.1366 0.663972 12.2003 0.0732422 12.4184C0.0732422 13.2138 1.01652 14.0832 1.5159 14.6012C1.96813 15.0569 2.44347 15.4891 2.94006 15.896C3.56891 16.4325 4.23476 16.9319 4.78962 17.4684C5.34449 18.0048 5.99184 18.6337 6.63919 19.1887C6.63919 19.3182 6.63919 19.4476 6.63919 19.5771C9.12467 18.1998 11.7886 17.1727 14.5553 16.525Z" fill="url(#paint9_radial_224_1881)"/>
</g>
<g style="mix-blend-mode:multiply">
<path style="mix-blend-mode:multiply" d="M7.08296 29.2865C6.87678 29.8808 6.8321 30.5192 6.95349 31.1363C7.61172 31.1073 8.25025 30.9029 8.80306 30.5444C9.59469 30.0078 10.3264 29.3876 10.9855 28.6946C12.5947 27.2333 13.9264 25.4575 15.628 24.1071V23.9961C15.8143 23.9354 16.015 23.9354 16.2013 23.9961C15.2587 21.5462 14.637 18.9845 14.3518 16.375C11.5404 19.3717 7.60084 27.5292 7.08296 29.2865Z" fill="url(#paint10_radial_224_1881)"/>
</g>
<path style="mix-blend-mode:multiply" d="M7.08152 29.2869C7.5994 27.4372 11.5205 19.3721 14.4798 16.6159V16.5234C11.7166 17.1903 9.05887 18.236 6.58214 19.6311C6.3602 20.7964 6.26772 22.0173 6.13825 23.1827C5.94458 24.7171 5.83344 26.2608 5.80533 27.8071C5.64687 28.8479 5.80811 29.9122 6.26772 30.8593C6.34183 30.953 6.43407 31.0308 6.53895 31.088C6.64383 31.1452 6.75918 31.1806 6.87808 31.1922C6.77008 30.5505 6.84045 29.8914 7.08152 29.2869Z" fill="url(#paint11_radial_224_1881)"/>
<path d="M15.4974 0.966797C15.4974 0.966797 14.7206 5.90574 14.6096 8.55094C14.4483 11.0209 14.5475 13.5009 14.9056 15.9501C14.9056 15.9501 23.58 11.3256 29.5911 11.4736C24.48 12.0772 19.5526 13.7472 15.1275 16.3755C15.1275 16.3755 20.3248 19.4092 24.8007 27.8812C24.8007 27.8812 20.4727 20.4821 15.8673 17.6334L14.6466 16.801C13.3788 18.3011 12.211 19.883 11.151 21.5364C9.4307 24.1157 8.03895 26.8996 7.00794 29.8235C7.00794 29.8235 7.17439 27.3448 11.151 20.852C11.5394 20.2416 14.0733 16.6715 14.0733 16.6715C10.1963 14.8142 6.15243 13.3277 1.99561 12.232C4.24801 12.6694 6.47163 13.2439 8.65405 13.9523C10.5943 14.45 12.4601 15.2026 14.2027 16.1906C13.9137 13.7326 13.9137 11.2493 14.2027 8.7914C14.3686 6.14611 14.8023 3.52449 15.4974 0.966797Z" fill="white"/>
<defs>
<linearGradient id="paint0_linear_224_1881" x1="2940.56" y1="6103.59" x2="2973.02" y2="6688.48" gradientUnits="userSpaceOnUse">
<stop offset="0.11" stop-color="#FFFB74"/>
<stop offset="0.49" stop-color="#FFFA00"/>
<stop offset="0.93" stop-color="#FFC921"/>
</linearGradient>
<radialGradient id="paint1_radial_224_1881" cx="0" cy="0" r="1" gradientUnits="userSpaceOnUse" gradientTransform="translate(1390.14 1512.19) scale(81.9932 41.3545)">
<stop stop-color="#FFFB62"/>
<stop offset="0.85" stop-color="white"/>
</radialGradient>
<radialGradient id="paint2_radial_224_1881" cx="0" cy="0" r="1" gradientUnits="userSpaceOnUse" gradientTransform="translate(689.886 3355.96) scale(41.0451 101.281)">
<stop offset="0.38" stop-color="#FFFB62"/>
<stop offset="0.85" stop-color="white"/>
</radialGradient>
<radialGradient id="paint3_radial_224_1881" cx="0" cy="0" r="1" gradientUnits="userSpaceOnUse" gradientTransform="translate(1725.15 1676.5) scale(105.192 51.3598)">
<stop offset="0.46" stop-color="#FFF418"/>
<stop offset="0.52" stop-color="#FCD311"/>
<stop offset="0.59" stop-color="#FAB70A"/>
<stop offset="0.66" stop-color="#F9A106"/>
<stop offset="0.74" stop-color="#F89203"/>
<stop offset="0.82" stop-color="#F78901"/>
<stop offset="0.95" stop-color="#F78600"/>
</radialGradient>
<radialGradient id="paint4_radial_224_1881" cx="0" cy="0" r="1" gradientUnits="userSpaceOnUse" gradientTransform="translate(25.0596 42.8919) scale(1.22713 1.08409)">
<stop offset="0.41" stop-color="#FFFB62"/>
<stop offset="0.85" stop-color="#F39F46"/>
</radialGradient>
<radialGradient id="paint5_radial_224_1881" cx="0" cy="0" r="1" gradientUnits="userSpaceOnUse" gradientTransform="translate(643.2 3379.47) scale(33.786 83.8017)">
<stop offset="0.39" stop-color="#F6C100"/>
<stop offset="1" stop-color="#EA6500"/>
</radialGradient>
<radialGradient id="paint6_radial_224_1881" cx="0" cy="0" r="1" gradientUnits="userSpaceOnUse" gradientTransform="translate(1229.57 3008.91) scale(75.4388 86.9226)">
<stop stop-color="#F6C100"/>
<stop offset="0.78" stop-color="#BC6300"/>
</radialGradient>
<radialGradient id="paint7_radial_224_1881" cx="0" cy="0" r="1" gradientUnits="userSpaceOnUse" gradientTransform="translate(1677.71 1662.61) scale(108.214 53.8577)">
<stop offset="0.38" stop-color="#FFDC11"/>
<stop offset="0.78" stop-color="#CE7000"/>
</radialGradient>
<radialGradient id="paint8_radial_224_1881" cx="0" cy="0" r="1" gradientUnits="userSpaceOnUse" gradientTransform="translate(1206.52 2998.3) scale(57.3926 70.1505)">
<stop offset="0.38" stop-color="#FFDC11"/>
<stop offset="0.78" stop-color="#CE7000"/>
</radialGradient>
<radialGradient id="paint9_radial_224_1881" cx="0" cy="0" r="1" gradientUnits="userSpaceOnUse" gradientTransform="translate(1440.55 1553.86) scale(124.621 64.2019)">
<stop offset="0.39" stop-color="#F6C100"/>
<stop offset="0.78" stop-color="#CD6400"/>
</radialGradient>
<radialGradient id="paint10_radial_224_1881" cx="0" cy="0" r="1" gradientUnits="userSpaceOnUse" gradientTransform="translate(888.89 3138.13) scale(58.234 93.2001)">
<stop offset="0.39" stop-color="#F6C100"/>
<stop offset="0.56" stop-color="#DB7E00"/>
<stop offset="0.88" stop-color="#BC6300"/>
</radialGradient>
<radialGradient id="paint11_radial_224_1881" cx="0" cy="0" r="1" gradientUnits="userSpaceOnUse" gradientTransform="translate(870.569 3111.82) scale(72.597 123.139)">
<stop offset="0.41" stop-color="#FFFB62"/>
<stop offset="0.85" stop-color="#F39F46"/>
</radialGradient>
</defs>
</svg>
