<svg id="Layer_1" data-name="Layer 1" xmlns="http://www.w3.org/2000/svg" viewBox="0 0 566.93 209.17"><defs><style>.cls-1{fill:#fff;}.cls-2,.cls-4{fill:#1d1d1b;}.cls-3,.cls-5{fill:#d9001d;}.cls-4,.cls-5{fill-rule:evenodd;}.cls-5{stroke:#fff;stroke-miterlimit:3.86;stroke-width:0.6px;}</style></defs><title>FPDA logo </title><path class="cls-1" d="M30.59,0H536.34a30.59,30.59,0,0,1,30.59,30.59v107a30.59,30.59,0,0,1-30.59,30.59H30.58A30.58,30.58,0,0,1,0,137.64V30.59A30.59,30.59,0,0,1,30.59,0Z"/><path class="cls-2" d="M141.56,379.57h14v2.32H144.24v5.33H155v2.33H144.24v8.06h-2.68Z" transform="translate(-137.4 -194)"/><path class="cls-2" d="M157.94,379.57h9.3c4,0,6,1.82,6,5.18s-2.07,5.63-5.86,5.63h-6.8v7.23h-2.68Zm9.13,8.49c2.65,0,3.53-1.44,3.53-3.26a2.73,2.73,0,0,0-3.06-2.91h-6.92v6.17Z" transform="translate(-137.4 -194)"/><path class="cls-2" d="M176,379.57h9.15c5.41,0,7.89,3.54,7.89,8.77,0,5-2.2,9.27-7.74,9.27H176Zm9.18,15.72c4.39,0,5.18-3.7,5.18-6.9s-1-6.5-5.69-6.5h-6v13.4Z" transform="translate(-137.4 -194)"/><path class="cls-2" d="M208,392.36h-8.85l-2.3,5.25H194l8.17-18h3.05l8.17,18H210.3ZM203.55,382l-3.39,8H207Z" transform="translate(-137.4 -194)"/><path class="cls-2" d="M223.15,389.27H232v2.63h-8.87Z" transform="translate(-137.4 -194)"/><path class="cls-2" d="M243.85,379.57h14v2.32h-11.3v5.33H257.3v2.33H246.53v8.06h-2.68Z" transform="translate(-137.4 -194)"/><path class="cls-2" d="M261.83,391.75a4.68,4.68,0,0,0,4.88,4.19,4.48,4.48,0,0,0,4.27-2.35h2.68a7.15,7.15,0,0,1-6.83,4.47c-5.15,0-7.68-3.26-7.68-7.07s2.53-7.07,7.68-7.07c3.49,0,7.18,2,7.18,7.5v.33Zm9.5-2a4.36,4.36,0,0,0-4.62-3.74,4.6,4.6,0,0,0-4.81,3.74Z" transform="translate(-137.4 -194)"/><path class="cls-2" d="M288.2,395.92h-.06a6.3,6.3,0,0,1-5,2.14c-4,0-7.21-2.55-7.21-7s3.21-7,7.21-7a6.17,6.17,0,0,1,5,2.14h.06v-6.79h2.52v18.19H288.2Zm-4.75,0a4.88,4.88,0,1,0-4.86-4.87A4.57,4.57,0,0,0,283.45,395.94Z" transform="translate(-137.4 -194)"/><path class="cls-2" d="M295.81,391.75a4.68,4.68,0,0,0,4.88,4.19,4.48,4.48,0,0,0,4.27-2.35h2.68a7.15,7.15,0,0,1-6.83,4.47c-5.15,0-7.68-3.26-7.68-7.07s2.53-7.07,7.68-7.07c3.49,0,7.18,2,7.18,7.5v.33Zm9.5-2a4.36,4.36,0,0,0-4.62-3.74,4.59,4.59,0,0,0-4.8,3.74Z" transform="translate(-137.4 -194)"/><path class="cls-2" d="M310.48,384.37H313v2.42h.05a5.12,5.12,0,0,1,4.55-2.87,4.83,4.83,0,0,1,1.44.15v2.72a7,7,0,0,0-1.79-.25c-2.5,0-4.25,1.47-4.25,4.35v6.72h-2.52Z" transform="translate(-137.4 -194)"/><path class="cls-2" d="M320.64,388.51c.33-3.31,2.6-4.59,6.57-4.59,2.71,0,6.09.68,6.09,3.76v7.12c0,.79.36,1.14,1.14,1.14a4.93,4.93,0,0,0,.88-.1v1.77a13,13,0,0,1-2,.15c-1.26,0-2.09-.35-2.27-1.84-1,1.36-3.49,2.14-5.64,2.14-4.39,0-5.38-2.27-5.38-4,0-2.42,1.44-3.66,5.69-4.11l2.88-.31c1.41-.15,2.3-.4,2.3-1.59,0-1.82-1.77-2.17-3.82-2.17s-4,.58-4.09,2.62Zm10.29,2.18c-.38.43-1.06.6-2.48.78l-2.86.35c-2,.26-3,.79-3,2.18,0,1.23,1.24,2.09,3.08,2.09,2.86,0,5.26-1.51,5.26-3.71Z" transform="translate(-137.4 -194)"/><path class="cls-2" d="M350.47,392.76c-1,3.66-3.11,5.08-6.14,5.25l-.61,1c.28,0,.53-.1.86-.1,1.19,0,2.25.51,2.25,1.64,0,1.57-1.59,2.15-3,2.15a15.41,15.41,0,0,1-2.68-.35l.33-1.19a6.75,6.75,0,0,0,1.9.33c.7,0,1.36-.28,1.36-.78,0-.34-.3-.74-1.06-.74a4.6,4.6,0,0,0-1.16.18l-.46-.48,1-1.67c-4.85-.2-6.67-3.64-6.67-7,0-3.92,2.4-7.15,7.18-7.15,3.53,0,6.34,1.59,6.87,4.87h-2.68c-.3-1.72-1.67-2.75-4-2.75-3.23,0-4.67,2.12-4.67,4.95s1.44,4.95,4.67,4.95a3.7,3.7,0,0,0,4.07-3.18Z" transform="translate(-137.4 -194)"/><path class="cls-2" d="M352.75,388.51c.33-3.31,2.61-4.59,6.57-4.59,2.71,0,6.09.68,6.09,3.76v7.12c0,.79.36,1.14,1.14,1.14a5.16,5.16,0,0,0,.89-.1v1.77a13.2,13.2,0,0,1-2,.15c-1.26,0-2.09-.35-2.27-1.84-1,1.36-3.49,2.14-5.63,2.14-4.4,0-5.39-2.27-5.39-4,0-2.42,1.44-3.66,5.69-4.11l2.88-.31c1.41-.15,2.3-.4,2.3-1.59,0-1.82-1.77-2.17-3.82-2.17s-4,.58-4.09,2.62Zm1.67-6a3.83,3.83,0,0,1,.86-2.19,2.49,2.49,0,0,1,2-.91,6.16,6.16,0,0,1,2.48.6,5.24,5.24,0,0,0,2,.53c.55,0,1-.25,1.16-1.13h1.49c-.15,1.74-1.16,3.1-2.88,3.1a6.16,6.16,0,0,1-2.48-.6,5.24,5.24,0,0,0-2-.53c-.55,0-1,.25-1.16,1.13Zm8.62,8.22c-.38.43-1.06.6-2.48.78l-2.85.35c-2,.26-3,.79-3,2.18,0,1.23,1.24,2.09,3.08,2.09,2.86,0,5.26-1.51,5.26-3.71Z" transform="translate(-137.4 -194)"/><path class="cls-2" d="M376.16,383.92c5.16,0,7.68,3.25,7.68,7.07s-2.52,7.07-7.68,7.07-7.68-3.26-7.68-7.07S371,383.92,376.16,383.92Zm0,2.12a5,5,0,1,0,5,4.95A4.63,4.63,0,0,0,376.16,386Z" transform="translate(-137.4 -194)"/><path class="cls-2" d="M395.1,379.57h9.3c4,0,6,1.82,6,5.18s-2.07,5.63-5.86,5.63h-6.8v7.23H395.1Zm9.13,8.49c2.65,0,3.53-1.44,3.53-3.26a2.73,2.73,0,0,0-3.05-2.91h-6.93v6.17Z" transform="translate(-137.4 -194)"/><path class="cls-2" d="M419.85,383.92c5.16,0,7.68,3.25,7.68,7.07s-2.52,7.07-7.68,7.07-7.68-3.26-7.68-7.07S414.7,383.92,419.85,383.92Zm0,2.12a5,5,0,1,0,5,4.95A4.63,4.63,0,0,0,419.85,386Z" transform="translate(-137.4 -194)"/><path class="cls-2" d="M429.94,384.37h2.53v2.42h0a5.11,5.11,0,0,1,4.55-2.87,4.83,4.83,0,0,1,1.44.15v2.72a7,7,0,0,0-1.79-.25c-2.51,0-4.25,1.47-4.25,4.35v6.72h-2.53Z" transform="translate(-137.4 -194)"/><path class="cls-2" d="M441.25,380.3h2.52v4.07h3.79v2h-3.79v8.16c0,1.07.76,1.44,2.05,1.44a10.26,10.26,0,0,0,1.74-.17v2.12a16.69,16.69,0,0,1-2.83.17c-2.47,0-3.48-1.21-3.48-3.13v-8.59h-2.73v-2h2.73Z" transform="translate(-137.4 -194)"/><path class="cls-2" d="M462.71,397.61h-2.53v-2h-.05a5.92,5.92,0,0,1-5.18,2.45c-3.19,0-5.56-1.36-5.56-4.67v-9h2.53v8.51c0,1.95,1.21,3.06,3.91,3.06,2.3,0,4.35-1.34,4.35-3.94v-7.63h2.53Z" transform="translate(-137.4 -194)"/><path class="cls-2" d="M477.55,384.37h2.53V396.5c0,4.75-2.28,6.67-7.71,6.67-2.86,0-6.14-.45-6.67-4.12h2.52c.46,1.72,2,2.15,4.4,2.15,3.59,0,4.93-1.82,4.93-4v-1.92h-.05a5.81,5.81,0,0,1-5.13,2.45c-3.54,0-7.25-1.92-7.25-6.83s3.71-6.84,7.22-6.84c2.18,0,4.17.73,5.16,2.25h.05Zm-4.88,1.82a4.53,4.53,0,0,0-4.88,4.75c0,2.73,1.8,4.67,4.88,4.67s4.88-1.94,4.88-4.67A4.54,4.54,0,0,0,472.67,386.19Z" transform="translate(-137.4 -194)"/><path class="cls-2" d="M496.23,397.61H493.7v-2h0a5.92,5.92,0,0,1-5.19,2.45c-3.18,0-5.56-1.36-5.56-4.67v-9h2.53v8.51c0,1.95,1.22,3.06,3.92,3.06,2.3,0,4.34-1.34,4.34-3.94v-7.63h2.53Z" transform="translate(-137.4 -194)"/><path class="cls-2" d="M501.32,391.75a4.68,4.68,0,0,0,4.88,4.19,4.48,4.48,0,0,0,4.27-2.35h2.68a7.15,7.15,0,0,1-6.83,4.47c-5.15,0-7.68-3.26-7.68-7.07s2.53-7.07,7.68-7.07c3.49,0,7.18,2,7.18,7.5v.33Zm9.5-2A4.36,4.36,0,0,0,506.2,386a4.59,4.59,0,0,0-4.8,3.74Z" transform="translate(-137.4 -194)"/><path class="cls-2" d="M517.76,393.44c0,1.19,1,2.65,4.16,2.65S526,395,526,394s-.48-1.49-2.5-1.77l-4.17-.55c-1.9-.25-3.59-1.47-3.59-3.52,0-2.67,2.32-4.26,6-4.26,4.35,0,6.24,1.87,6.47,4.44h-2.53c-.07-1.34-1.34-2.47-4-2.47-1.61,0-3.48.45-3.48,2,0,.88.4,1.39,2.2,1.64L524,390c3.34.45,4.63,1.64,4.63,3.51,0,3.09-2.6,4.52-6.65,4.52-3,0-6.49-.78-6.77-4.62Z" transform="translate(-137.4 -194)"/><path class="cls-2" d="M530.85,388.51c.33-3.31,2.61-4.59,6.57-4.59,2.71,0,6.09.68,6.09,3.76v7.12c0,.79.36,1.14,1.14,1.14a5.16,5.16,0,0,0,.89-.1v1.77a13.2,13.2,0,0,1-2,.15c-1.26,0-2.09-.35-2.27-1.84-1,1.36-3.49,2.14-5.63,2.14-4.4,0-5.39-2.27-5.39-4,0-2.42,1.44-3.66,5.69-4.11l2.88-.31c1.41-.15,2.3-.4,2.3-1.59,0-1.82-1.77-2.17-3.82-2.17s-4,.58-4.09,2.62Zm10.29,2.18c-.38.43-1.06.6-2.48.78l-2.85.35c-2,.26-3,.79-3,2.18,0,1.23,1.24,2.09,3.08,2.09,2.86,0,5.26-1.51,5.26-3.71Z" transform="translate(-137.4 -194)"/><path class="cls-2" d="M567.21,395.92h-.06a6.3,6.3,0,0,1-5,2.14c-4,0-7.21-2.55-7.21-7s3.21-7,7.21-7a6.17,6.17,0,0,1,5,2.14h.06v-6.79h2.52v18.19h-2.52Zm-4.76,0a4.88,4.88,0,1,0-4.85-4.87A4.57,4.57,0,0,0,562.45,395.94Z" transform="translate(-137.4 -194)"/><path class="cls-2" d="M574.82,391.75a4.68,4.68,0,0,0,4.88,4.19,4.48,4.48,0,0,0,4.27-2.35h2.67a7.13,7.13,0,0,1-6.82,4.47c-5.15,0-7.68-3.26-7.68-7.07s2.53-7.07,7.68-7.07c3.49,0,7.18,2,7.18,7.5v.33Zm9.5-2A4.36,4.36,0,0,0,579.7,386a4.6,4.6,0,0,0-4.81,3.74Z" transform="translate(-137.4 -194)"/><path class="cls-2" d="M610.21,392.36h-8.84l-2.3,5.25h-2.88l8.16-18h3.06l8.16,18h-3.06ZM605.76,382l-3.38,8h6.85Z" transform="translate(-137.4 -194)"/><path class="cls-2" d="M630.24,397.61h-2.53v-2h-.05a5.92,5.92,0,0,1-5.18,2.45c-3.19,0-5.56-1.36-5.56-4.67v-9h2.53v8.51c0,1.95,1.21,3.06,3.91,3.06,2.3,0,4.35-1.34,4.35-3.94v-7.63h2.53Z" transform="translate(-137.4 -194)"/><path class="cls-2" d="M634.34,380.3h2.53v4.07h3.79v2h-3.79v8.16c0,1.07.75,1.44,2,1.44a10.37,10.37,0,0,0,1.75-.17v2.12a16.75,16.75,0,0,1-2.83.17c-2.48,0-3.49-1.21-3.49-3.13v-8.59h-2.73v-2h2.73Z" transform="translate(-137.4 -194)"/><path class="cls-2" d="M642.48,379.42H645v2.78h-2.53Zm0,4.95H645v13.24h-2.53Z" transform="translate(-137.4 -194)"/><path class="cls-2" d="M649.76,393.44c0,1.19,1,2.65,4.17,2.65s4-1.13,4-2.07-.48-1.49-2.5-1.77l-4.17-.55c-1.89-.25-3.59-1.47-3.59-3.52,0-2.67,2.33-4.26,6-4.26,4.35,0,6.25,1.87,6.47,4.44H657.7c-.08-1.34-1.34-2.47-4-2.47-1.62,0-3.49.45-3.49,2,0,.88.41,1.39,2.2,1.64L656,390c3.33.45,4.62,1.64,4.62,3.51,0,3.09-2.6,4.52-6.64,4.52-3,0-6.5-.78-6.78-4.62Z" transform="translate(-137.4 -194)"/><path class="cls-2" d="M683,389.19a2.85,2.85,0,0,0-3.19-3.15c-2.29,0-4.34,1.08-4.34,3.56v8h-2.53v-8.42a2.85,2.85,0,0,0-3.18-3.15c-2.3,0-4.35,1.34-4.35,3.94v7.63h-2.53V384.37h2.53v2h.05a5.92,5.92,0,0,1,5.18-2.45,5.07,5.07,0,0,1,4.5,2.45,6.33,6.33,0,0,1,5.36-2.45c1.34,0,5,.63,5,4.67v9H683Z" transform="translate(-137.4 -194)"/><path class="cls-2" d="M695.62,383.92c5.16,0,7.68,3.25,7.68,7.07s-2.52,7.07-7.68,7.07-7.68-3.26-7.68-7.07S690.47,383.92,695.62,383.92Zm0,2.12a5,5,0,1,0,5,4.95A4.63,4.63,0,0,0,695.62,386Z" transform="translate(-137.4 -194)"/><path class="cls-3" d="M673.74,194H168a30.58,30.58,0,0,0-30.58,30.58v107A30.59,30.59,0,0,0,168,362.22H673.74a30.6,30.6,0,0,0,30.59-30.59v-107A30.59,30.59,0,0,0,673.74,194ZM288.52,324a22.94,22.94,0,0,1-22.94,22.94H173.82A22.94,22.94,0,0,1,150.88,324V232.23a22.94,22.94,0,0,1,22.94-22.95h91.76a22.94,22.94,0,0,1,22.94,22.95Zm108,15.49V311.83h-3.71v27.64H375.76l0-27.64V291.22L360,260.15l.06,35.71,0,43.62H343.12V295.86h-3.71l0,43.61H322.31l0-43.61,0-20.7-10.37,20.46H296l22.26-44.08h3.87l13,0a18.14,18.14,0,1,1,14.93,0h25a20.65,20.65,0,0,1-.53-4.48,20.15,20.15,0,1,1,39.1,6.84l1.37-2.36,19.35,0-20.66,41-.06,19.31.06,27.59Zm127.94,0V311.83h-3.71v27.64H503.69l0-27.64V291.22L488,260.15l.06,35.71,0,43.62H471.05V295.86h-3.71v43.61H450.25l0-43.61,0-20.7-10.38,20.46H424l22.26-44.08h3.86l13,0a18.14,18.14,0,1,1,14.94,0h25a20.12,20.12,0,1,1,38.56,2.36l1.38-2.36,19.34,0-20.66,41-.06,19.31.07,27.59Zm145-46.9-.06,19.31.06,27.59H652.43V311.83h-3.71v27.64H631.63l0-27.64V291.22L615.9,260.15l.06,35.71,0,43.62H599V295.86h-3.71v43.61H578.18l0-43.61v-20.7l-10.37,20.46H551.91l22.26-44.08H578l13,0a18.14,18.14,0,1,1,14.94,0h25a20.65,20.65,0,0,1-.53-4.48,20.15,20.15,0,1,1,39.1,6.84l1.37-2.36,19.34,0Z" transform="translate(-137.4 -194)"/><path class="cls-3" d="M393.68,283.48,381.13,262A20.13,20.13,0,0,0,410,260.17L396.4,283.48Z" transform="translate(-137.4 -194)"/><path class="cls-3" d="M521.61,283.48,509.07,262a20.13,20.13,0,0,0,28.83-1.86l-13.57,23.31Z" transform="translate(-137.4 -194)"/><path class="cls-3" d="M649.54,283.48,637,262a20.13,20.13,0,0,0,28.83-1.86l-13.56,23.31Z" transform="translate(-137.4 -194)"/><path class="cls-4" d="M250.22,283.33l18-31,18.8,0L267,292.16l-.06,18.76.06,26.82H250.38V310.88h-3.61v26.86H230.16l0-26.86v-20l-15.23-30.2.06,34.72-.05,42.38H198.44V295.37h-3.61v42.37H178.22l-.05-42.37V275.24l-10.08,19.89H152.69l21.63-42.84h3.76l12.59,0a17.63,17.63,0,1,1,14.52,0h24.26l18.12,31Z" transform="translate(-137.4 -194)"/><path class="cls-5" d="M228.93,248a19.58,19.58,0,1,1,19.58,19.58A19.58,19.58,0,0,1,228.93,248Z" transform="translate(-137.4 -194)"/></svg>